<svg width="18" height="18" viewBox="0 0 18 18" fill="none" xmlns="http://www.w3.org/2000/svg">
<path d="M5.94141 2.03909C6.0618 2.12754 6.13477 2.21674 6.1875 2.35549C6.19343 2.45361 6.19569 2.54807 6.19437 2.64608C6.19427 2.67398 6.19417 2.70187 6.19406 2.73061C6.19367 2.81944 6.19279 2.90826 6.19189 2.9971C6.19154 3.05743 6.19122 3.11776 6.19093 3.1781C6.19022 3.32578 6.18884 3.47343 6.1875 3.62112C6.43113 3.63272 6.67477 3.64432 6.92578 3.65628C6.92456 3.56482 6.92333 3.47337 6.92207 3.37914C6.92125 3.29013 6.92061 3.20112 6.91999 3.11211C6.91946 3.05046 6.91874 2.98881 6.91782 2.92716C6.91654 2.83832 6.91595 2.74949 6.91548 2.66064C6.91494 2.63327 6.91439 2.60591 6.91383 2.57772C6.91378 2.407 6.93883 2.29344 7.03125 2.14456C7.13642 2.03938 7.21623 2.02391 7.36304 2.02371C7.49376 2.02737 7.55069 2.03457 7.66626 2.10061C7.81092 2.2686 7.81432 2.40922 7.81155 2.62631C7.81145 2.65576 7.81135 2.68521 7.81125 2.71556C7.81086 2.80941 7.80998 2.90325 7.80908 2.9971C7.80873 3.06082 7.80841 3.12454 7.80812 3.18826C7.80741 3.34427 7.80603 3.50026 7.80469 3.65628C8.05992 3.65628 8.31516 3.65628 8.57812 3.65628C8.57507 3.51148 8.57507 3.51148 8.57195 3.36376C8.57057 3.26987 8.56951 3.17597 8.56847 3.08207C8.56759 3.017 8.56639 2.95194 8.56486 2.88689C8.56272 2.79315 8.56173 2.69946 8.56096 2.60571C8.56005 2.57681 8.55914 2.5479 8.55821 2.51812C8.55814 2.37092 8.56836 2.27847 8.66269 2.16188C8.80282 2.02725 8.89734 2.02536 9.08611 2.02645C9.23058 2.04681 9.28876 2.10937 9.38672 2.21487C9.44528 2.33199 9.4261 2.46326 9.42531 2.59197C9.42523 2.63747 9.42523 2.63747 9.42516 2.68389C9.42496 2.78097 9.42452 2.87805 9.42407 2.97512C9.4239 3.04086 9.42374 3.10659 9.42359 3.17233C9.42323 3.33365 9.42255 3.49496 9.42188 3.65628C9.67711 3.65628 9.93234 3.65628 10.1953 3.65628C10.1937 3.56228 10.192 3.46829 10.1904 3.37145C10.1893 3.28 10.1884 3.18855 10.1876 3.09709C10.1869 3.03373 10.1859 2.97037 10.1847 2.90702C10.183 2.81574 10.1822 2.72448 10.1816 2.63317C10.1809 2.60504 10.1801 2.57691 10.1794 2.54792C10.1793 2.36179 10.2119 2.25667 10.3359 2.1094C10.4926 2.00497 10.6444 2.01703 10.8281 2.03909C10.9567 2.11259 11.0232 2.1827 11.0742 2.32034C11.0802 2.42351 11.0824 2.52322 11.0811 2.62631C11.0809 2.67049 11.0809 2.67049 11.0808 2.71556C11.0804 2.80941 11.0795 2.90325 11.0786 2.9971C11.0783 3.06082 11.0779 3.12454 11.0777 3.18826C11.0769 3.34427 11.0756 3.50026 11.0742 3.65628C11.4397 3.63887 11.4397 3.63887 11.8125 3.62112C11.8109 3.53261 11.8092 3.4441 11.8076 3.35292C11.8065 3.26658 11.8056 3.18024 11.8048 3.0939C11.8041 3.0342 11.8031 2.97449 11.8019 2.91479C11.8002 2.82865 11.7994 2.74254 11.7988 2.65638C11.798 2.62997 11.7973 2.60355 11.7966 2.57634C11.7965 2.38177 11.8412 2.26934 11.9531 2.1094C12.1098 2.00493 12.2616 2.01262 12.4453 2.03909C12.557 2.09718 12.6343 2.17106 12.6914 2.28518C12.6945 2.38773 12.6955 2.48943 12.6948 2.59197C12.6948 2.63747 12.6948 2.63747 12.6947 2.68389C12.6945 2.78097 12.6941 2.87805 12.6936 2.97512C12.6934 3.04086 12.6933 3.10659 12.6931 3.17233C12.6927 3.33364 12.6921 3.49496 12.6914 3.65628C12.7183 3.65535 12.7452 3.65443 12.773 3.65349C12.8966 3.6498 13.0203 3.64753 13.144 3.64529C13.1864 3.64382 13.2287 3.64234 13.2723 3.64083C13.587 3.63655 13.8317 3.68284 14.0675 3.90205C14.3476 4.19593 14.3584 4.45708 14.3503 4.84939C14.3499 4.89355 14.3494 4.93772 14.3489 4.98322C14.3477 5.0917 14.3459 5.20015 14.3438 5.30862C14.3833 5.30807 14.4228 5.30751 14.4636 5.30695C14.6107 5.30503 14.7578 5.30382 14.9049 5.30283C14.9685 5.3023 15.0321 5.30158 15.0957 5.30066C15.1872 5.29938 15.2787 5.29878 15.3703 5.29832C15.4128 5.2975 15.4128 5.2975 15.4561 5.29667C15.6193 5.29662 15.7217 5.3104 15.8555 5.41409C15.9569 5.51978 15.9777 5.59836 15.9807 5.74368C15.9773 5.88672 15.9629 5.96548 15.8621 6.06887C15.6931 6.19474 15.56 6.19231 15.3574 6.19096C15.3294 6.19091 15.3015 6.19086 15.2727 6.19081C15.1835 6.19061 15.0943 6.19017 15.0051 6.18972C14.9446 6.18955 14.8841 6.18939 14.8236 6.18924C14.6754 6.18888 14.5272 6.1882 14.3789 6.18753C14.3673 6.43116 14.3557 6.67479 14.3438 6.92581C14.4352 6.92458 14.5267 6.92336 14.6209 6.9221C14.7099 6.92127 14.7989 6.92063 14.8879 6.92001C14.9496 6.91948 15.0112 6.91876 15.0729 6.91785C15.1617 6.91656 15.2505 6.91597 15.3394 6.91551C15.3668 6.91496 15.3941 6.91442 15.4223 6.91386C15.593 6.9138 15.7066 6.93885 15.8555 7.03127C15.9606 7.13645 15.9761 7.21625 15.9763 7.36306C15.9727 7.49379 15.9655 7.55071 15.8994 7.66628C15.7314 7.81094 15.5908 7.81434 15.3737 7.81158C15.3443 7.81148 15.3148 7.81138 15.2845 7.81128C15.1906 7.81088 15.0968 7.81 15.0029 7.80911C14.9392 7.80875 14.8755 7.80843 14.8118 7.80815C14.6558 7.80743 14.4998 7.80605 14.3438 7.80471C14.3438 8.05995 14.3438 8.31518 14.3438 8.57815C14.4403 8.57611 14.5368 8.57407 14.6363 8.57197C14.7302 8.5706 14.8241 8.56953 14.918 8.56849C14.983 8.56761 15.0481 8.56641 15.1131 8.56489C15.2069 8.56275 15.3006 8.56176 15.3943 8.56098C15.4377 8.55962 15.4377 8.55962 15.4819 8.55823C15.6291 8.55816 15.7216 8.56838 15.8381 8.66272C15.9728 8.80284 15.9747 8.89736 15.9736 9.08613C15.9532 9.2306 15.8907 9.28878 15.7852 9.38674C15.668 9.44531 15.5368 9.42612 15.4081 9.42533C15.3626 9.42526 15.3626 9.42526 15.3161 9.42518C15.2191 9.42499 15.122 9.42454 15.0249 9.4241C14.9592 9.42392 14.8934 9.42376 14.8277 9.42362C14.6664 9.42326 14.5051 9.42257 14.3438 9.4219C14.3438 9.67713 14.3438 9.93237 14.3438 10.1953C14.4377 10.1937 14.5317 10.1921 14.6286 10.1904C14.72 10.1893 14.8115 10.1884 14.9029 10.1876C14.9663 10.1869 15.0297 10.1859 15.093 10.1847C15.1843 10.183 15.2755 10.1822 15.3669 10.1816C15.395 10.1809 15.4231 10.1802 15.4521 10.1794C15.6382 10.1793 15.7434 10.212 15.8906 10.336C15.9951 10.4926 15.983 10.6444 15.9609 10.8281C15.8874 10.9568 15.8173 11.0232 15.6797 11.0742C15.5765 11.0802 15.4768 11.0824 15.3737 11.0811C15.3443 11.081 15.3148 11.0809 15.2845 11.0808C15.1906 11.0804 15.0968 11.0795 15.0029 11.0786C14.9392 11.0783 14.8755 11.078 14.8118 11.0777C14.6558 11.077 14.4998 11.0756 14.3438 11.0742C14.3554 11.3179 14.367 11.5615 14.3789 11.8125C14.4674 11.8109 14.5559 11.8093 14.6471 11.8076C14.7334 11.8065 14.8198 11.8056 14.9061 11.8048C14.9658 11.8041 15.0255 11.8031 15.0852 11.8019C15.1714 11.8002 15.2575 11.7994 15.3436 11.7988C15.3833 11.7977 15.3833 11.7977 15.4237 11.7966C15.6183 11.7965 15.7307 11.8412 15.8906 11.9532C15.9951 12.1099 15.9874 12.2616 15.9609 12.4453C15.9028 12.557 15.829 12.6344 15.7148 12.6914C15.6123 12.6945 15.5106 12.6955 15.4081 12.6949C15.3626 12.6948 15.3626 12.6948 15.3161 12.6947C15.2191 12.6945 15.122 12.6941 15.0249 12.6936C14.9592 12.6935 14.8934 12.6933 14.8277 12.6931C14.6664 12.6928 14.5051 12.6922 14.3438 12.6914C14.3445 12.7187 14.3452 12.746 14.346 12.7741C14.3489 12.8989 14.3507 13.0237 14.3525 13.1485C14.3537 13.1914 14.3549 13.2343 14.3561 13.2785C14.3589 13.536 14.3428 13.7038 14.2031 13.9219C14.1874 13.9467 14.1718 13.9715 14.1556 13.997C13.9902 14.1984 13.7846 14.3266 13.5231 14.3578C13.3963 14.361 13.2708 14.3592 13.144 14.3548C13.1004 14.354 13.0567 14.3532 13.0117 14.3524C12.9049 14.3503 12.7982 14.3474 12.6914 14.3438C12.692 14.3833 12.6925 14.4229 12.6931 14.4636C12.695 14.6107 12.6962 14.7578 12.6972 14.9049C12.6977 14.9685 12.6984 15.0321 12.6994 15.0957C12.7006 15.1872 12.7012 15.2788 12.7017 15.3703C12.7023 15.3986 12.7028 15.4269 12.7034 15.4561C12.7034 15.6193 12.6896 15.7217 12.5859 15.8555C12.4802 15.9569 12.4017 15.9777 12.2563 15.9807C12.1133 15.9773 12.0345 15.963 11.9312 15.8621C11.8053 15.6932 11.8077 15.56 11.8091 15.3574C11.8091 15.3155 11.8091 15.3155 11.8092 15.2727C11.8094 15.1835 11.8099 15.0943 11.8103 15.0052C11.8105 14.9447 11.8106 14.8842 11.8108 14.8237C11.8111 14.6754 11.8118 14.5272 11.8125 14.3789C11.5689 14.3673 11.3252 14.3557 11.0742 14.3438C11.0759 14.4348 11.0775 14.5259 11.0792 14.6197C11.0803 14.7084 11.0811 14.7972 11.0819 14.886C11.0826 14.9474 11.0836 15.0088 11.0848 15.0702C11.0865 15.1588 11.0873 15.2474 11.088 15.336C11.0887 15.3632 11.0894 15.3903 11.0902 15.4184C11.0902 15.6153 11.0473 15.7289 10.9336 15.8907C10.7769 15.9951 10.6251 15.983 10.4414 15.961C10.3128 15.8875 10.2463 15.8173 10.1953 15.6797C10.1894 15.5765 10.1871 15.4768 10.1884 15.3737C10.1885 15.3443 10.1886 15.3148 10.1887 15.2845C10.1891 15.1906 10.19 15.0968 10.1909 15.003C10.1913 14.9392 10.1916 14.8755 10.1919 14.8118C10.1926 14.6558 10.194 14.4998 10.1953 14.3438C9.94008 14.3438 9.68484 14.3438 9.42188 14.3438C9.42493 14.4886 9.42493 14.4886 9.42805 14.6363C9.42943 14.7302 9.43049 14.8241 9.43153 14.918C9.43241 14.983 9.43361 15.0481 9.43514 15.1132C9.43728 15.2069 9.43827 15.3006 9.43904 15.3943C9.43995 15.4232 9.44086 15.4521 9.44179 15.4819C9.44186 15.6291 9.43164 15.7216 9.33731 15.8382C9.19718 15.9728 9.10266 15.9747 8.91389 15.9736C8.76942 15.9532 8.71124 15.8907 8.61328 15.7852C8.55472 15.6681 8.5739 15.5368 8.57469 15.4081C8.57477 15.3626 8.57477 15.3626 8.57484 15.3162C8.57504 15.2191 8.57548 15.122 8.57593 15.0249C8.5761 14.9592 8.57626 14.8935 8.57641 14.8277C8.57677 14.6664 8.57745 14.5051 8.57812 14.3438C8.32289 14.3438 8.06766 14.3438 7.80469 14.3438C7.80632 14.4378 7.80795 14.5318 7.80963 14.6286C7.81073 14.7201 7.81158 14.8115 7.81241 14.903C7.81312 14.9663 7.81408 15.0297 7.8153 15.093C7.81701 15.1843 7.8178 15.2756 7.81842 15.3669C7.81915 15.395 7.81987 15.4231 7.82062 15.4521C7.82069 15.6383 7.78807 15.7434 7.66406 15.8907C7.50741 15.9951 7.35559 15.983 7.17188 15.961C7.04325 15.8875 6.97681 15.8173 6.92578 15.6797C6.91984 15.5765 6.9176 15.4768 6.91891 15.3737C6.91901 15.3443 6.91911 15.3148 6.91922 15.2845C6.91961 15.1906 6.92049 15.0968 6.92139 15.003C6.92174 14.9392 6.92206 14.8755 6.92235 14.8118C6.92306 14.6558 6.92444 14.4998 6.92578 14.3438C6.68215 14.3554 6.43852 14.367 6.1875 14.3789C6.18913 14.4674 6.19076 14.5559 6.19244 14.6471C6.19354 14.7335 6.1944 14.8198 6.19522 14.9061C6.19593 14.9659 6.19689 15.0256 6.19811 15.0853C6.19983 15.1714 6.20061 15.2575 6.20123 15.3437C6.20196 15.3701 6.20268 15.3965 6.20343 15.4237C6.20351 15.6183 6.15883 15.7307 6.04688 15.8907C5.89016 15.9951 5.73841 15.9874 5.55469 15.961C5.44304 15.9029 5.36565 15.829 5.30859 15.7149C5.30554 15.6123 5.30453 15.5106 5.30516 15.4081C5.30521 15.3777 5.30526 15.3474 5.30531 15.3162C5.30551 15.2191 5.30595 15.122 5.3064 15.0249C5.30657 14.9592 5.30673 14.8935 5.30688 14.8277C5.30727 14.6664 5.30787 14.5051 5.30859 14.3438C5.28131 14.3445 5.25403 14.3452 5.22592 14.346C5.10114 14.3489 4.97637 14.3508 4.85156 14.3526C4.80865 14.3537 4.76573 14.3549 4.72151 14.3561C4.46407 14.3589 4.29624 14.3428 4.07812 14.2032C4.05334 14.1875 4.02855 14.1718 4.00301 14.1556C3.80158 13.9902 3.67346 13.7846 3.6422 13.5231C3.63902 13.3963 3.64085 13.2708 3.64526 13.1441C3.64645 13.0785 3.64645 13.0785 3.64767 13.0117C3.64972 12.9049 3.6526 12.7982 3.65625 12.6914C3.6167 12.692 3.57715 12.6925 3.5364 12.6931C3.38932 12.695 3.24223 12.6962 3.09513 12.6972C3.03154 12.6978 2.96794 12.6985 2.90435 12.6994C2.8128 12.7007 2.72127 12.7013 2.62971 12.7017C2.6014 12.7023 2.57309 12.7028 2.54391 12.7034C2.38067 12.7034 2.27833 12.6896 2.14453 12.586C2.04178 12.4794 2.02311 12.4009 2.02148 12.2542C2.02529 12.1114 2.03105 12.0695 2.11816 11.951C2.29906 11.8235 2.42502 11.8027 2.64606 11.8057C2.67395 11.8058 2.70184 11.8059 2.73058 11.806C2.81942 11.8064 2.90824 11.8072 2.99707 11.8081C3.0574 11.8085 3.11774 11.8088 3.17807 11.8091C3.32575 11.8098 3.47341 11.8112 3.62109 11.8125C3.6327 11.5689 3.6443 11.3253 3.65625 11.0742C3.5652 11.0759 3.47416 11.0775 3.38036 11.0792C3.29158 11.0803 3.2028 11.0811 3.11401 11.082C3.0526 11.0827 2.99119 11.0836 2.92979 11.0849C2.8412 11.0866 2.75265 11.0874 2.66405 11.088C2.63686 11.0887 2.60968 11.0894 2.58167 11.0902C2.38476 11.0903 2.27109 11.0473 2.10938 10.9336C2.00494 10.777 2.01701 10.6251 2.03906 10.4414C2.11256 10.3128 2.18268 10.2464 2.32031 10.1953C2.42349 10.1894 2.5232 10.1872 2.62628 10.1885C2.67046 10.1886 2.67046 10.1886 2.71553 10.1888C2.80939 10.1892 2.90322 10.19 2.99707 10.1909C3.06079 10.1913 3.12451 10.1916 3.18823 10.1919C3.34425 10.1926 3.50023 10.194 3.65625 10.1953C3.65625 9.9401 3.65625 9.68487 3.65625 9.4219C3.55972 9.42394 3.46319 9.42598 3.36374 9.42808C3.26984 9.42945 3.17594 9.43052 3.08204 9.43156C3.01698 9.43244 2.95192 9.43364 2.88686 9.43516C2.79313 9.4373 2.69944 9.43829 2.60568 9.43907C2.56233 9.44043 2.56233 9.44043 2.5181 9.44182C2.37089 9.44189 2.27845 9.43167 2.16185 9.33733C2.02723 9.19721 2.02534 9.10269 2.02643 8.91392C2.04678 8.76945 2.10935 8.71127 2.21484 8.61331C2.33197 8.55474 2.46324 8.57393 2.59195 8.57472C2.63745 8.57479 2.63745 8.57479 2.68387 8.57487C2.78095 8.57506 2.87802 8.57551 2.9751 8.57595C3.04083 8.57613 3.10657 8.57629 3.1723 8.57643C3.33362 8.57679 3.49493 8.57748 3.65625 8.57815C3.65625 8.32292 3.65625 8.06768 3.65625 7.80471C3.56226 7.80634 3.46827 7.80798 3.37143 7.80966C3.27997 7.81075 3.18852 7.81161 3.09706 7.81244C3.03371 7.81314 2.97035 7.8141 2.907 7.81532C2.81571 7.81703 2.72445 7.81783 2.63315 7.81845C2.59095 7.81953 2.59095 7.81953 2.5479 7.82064C2.36176 7.82072 2.25665 7.7881 2.10938 7.66409C2.00494 7.50744 2.01701 7.35561 2.03906 7.1719C2.11256 7.04328 2.18268 6.97684 2.32031 6.92581C2.42349 6.91986 2.5232 6.91763 2.62628 6.91894C2.67046 6.91909 2.67046 6.91909 2.71553 6.91924C2.80939 6.91963 2.90322 6.92052 2.99707 6.92141C3.06079 6.92176 3.12451 6.92209 3.18823 6.92237C3.34425 6.92309 3.50023 6.92446 3.65625 6.92581C3.63885 6.56036 3.63885 6.56036 3.62109 6.18753C3.53259 6.18916 3.44408 6.19079 3.35289 6.19247C3.26655 6.19357 3.18022 6.19442 3.09388 6.19525C3.03417 6.19595 2.97447 6.19691 2.91477 6.19813C2.82862 6.19985 2.74251 6.20064 2.65636 6.20126C2.61674 6.20235 2.61674 6.20235 2.57631 6.20346C2.38175 6.20354 2.26931 6.15886 2.10938 6.0469C2.0049 5.89019 2.01259 5.73843 2.03906 5.55471C2.09715 5.44307 2.17104 5.36568 2.28516 5.30862C2.38771 5.30556 2.48941 5.30456 2.59195 5.30519C2.63745 5.30526 2.63745 5.30526 2.68387 5.30534C2.78095 5.30553 2.87802 5.30597 2.9751 5.30642C3.04083 5.3066 3.10657 5.30676 3.1723 5.3069C3.33362 5.30729 3.49493 5.3079 3.65625 5.30862C3.65533 5.28171 3.65441 5.25479 3.65346 5.22706C3.64977 5.10338 3.64751 4.9797 3.64526 4.85598C3.64379 4.81365 3.64232 4.77133 3.6408 4.72772C3.63652 4.41301 3.68282 4.16837 3.90203 3.93253C4.19591 3.65247 4.45706 3.64166 4.84937 3.64968C4.89353 3.65016 4.93769 3.65063 4.98319 3.65113C5.09168 3.65236 5.20013 3.65409 5.30859 3.65628C5.30804 3.61673 5.30749 3.57718 5.30692 3.53643C5.30501 3.38934 5.3038 3.24225 5.3028 3.09516C5.30227 3.03156 5.30155 2.96796 5.30064 2.90437C5.29935 2.81283 5.29876 2.72129 5.29829 2.62974C5.29775 2.60143 5.29721 2.57311 5.29664 2.54394C5.2966 2.3807 5.31039 2.27836 5.41406 2.14456C5.56624 1.99784 5.74129 2.00702 5.94141 2.03909ZM5.37891 5.4844C5.32499 5.59224 5.33855 5.70524 5.33858 5.82358C5.33845 5.85165 5.33832 5.87973 5.33818 5.90865C5.3378 6.00325 5.33766 6.09785 5.33753 6.19244C5.33731 6.26006 5.33707 6.32767 5.33683 6.39528C5.33621 6.57934 5.33584 6.76341 5.33555 6.94747C5.33537 7.06239 5.33516 7.17731 5.33494 7.29223C5.33427 7.65157 5.33377 8.0109 5.33348 8.37024C5.33313 8.78545 5.33221 9.20066 5.33079 9.61587C5.32973 9.93653 5.32921 10.2572 5.32909 10.5779C5.32901 10.7695 5.32869 10.9611 5.32781 11.1528C5.32699 11.3331 5.32684 11.5133 5.3272 11.6936C5.32722 11.7598 5.32699 11.826 5.32651 11.8922C5.32589 11.9825 5.32614 12.0728 5.3266 12.1631C5.32622 12.1893 5.32583 12.2156 5.32543 12.2426C5.32756 12.4136 5.3625 12.5012 5.48438 12.6211C5.59222 12.675 5.70521 12.6615 5.82355 12.6614C5.85163 12.6616 5.8797 12.6617 5.90863 12.6618C6.00323 12.6622 6.09782 12.6624 6.19242 12.6625C6.26003 12.6627 6.32764 12.663 6.39525 12.6632C6.57932 12.6638 6.76338 12.6642 6.94745 12.6645C7.06237 12.6647 7.17729 12.6649 7.29221 12.6651C7.65154 12.6658 8.01088 12.6663 8.37022 12.6665C8.78543 12.6669 9.20063 12.6678 9.61584 12.6692C9.9365 12.6703 10.2572 12.6708 10.5778 12.6709C10.7695 12.671 10.9611 12.6713 11.1528 12.6722C11.333 12.673 11.5133 12.6732 11.6935 12.6728C11.7597 12.6728 11.8259 12.673 11.8921 12.6735C11.9825 12.6741 12.0727 12.6739 12.1631 12.6734C12.1893 12.6738 12.2156 12.6742 12.2426 12.6746C12.4136 12.6725 12.5012 12.6375 12.6211 12.5157C12.675 12.4078 12.6615 12.2948 12.6614 12.1765C12.6616 12.1484 12.6617 12.1203 12.6618 12.0914C12.6622 11.9968 12.6623 11.9022 12.6625 11.8076C12.6627 11.74 12.6629 11.6724 12.6632 11.6048C12.6638 11.4207 12.6642 11.2366 12.6644 11.0526C12.6646 10.9377 12.6648 10.8227 12.6651 10.7078C12.6657 10.3485 12.6662 9.98915 12.6665 9.62981C12.6669 9.2146 12.6678 8.79939 12.6692 8.38418C12.6703 8.06352 12.6708 7.74286 12.6709 7.4222C12.671 7.23055 12.6713 7.03891 12.6722 6.84726C12.673 6.667 12.6732 6.48675 12.6728 6.30648C12.6728 6.24028 12.673 6.17408 12.6735 6.10789C12.6741 6.01757 12.6739 5.92729 12.6734 5.83697C12.6738 5.81072 12.6742 5.78447 12.6746 5.75742C12.6724 5.58642 12.6375 5.49884 12.5156 5.37893C12.4078 5.32501 12.2948 5.33857 12.1764 5.3386C12.1484 5.33847 12.1203 5.33834 12.0914 5.33821C11.9968 5.33782 11.9022 5.33769 11.8076 5.33755C11.74 5.33733 11.6724 5.3371 11.6047 5.33685C11.4207 5.33624 11.2366 5.33587 11.0526 5.33558C10.9376 5.3354 10.8227 5.33518 10.7078 5.33496C10.3485 5.33429 9.98912 5.33379 9.62978 5.3335C9.21457 5.33316 8.79937 5.33223 8.38416 5.33081C8.0635 5.32975 7.74284 5.32923 7.42217 5.32911C7.23053 5.32903 7.03888 5.32871 6.84724 5.32783C6.66697 5.32702 6.48672 5.32686 6.30646 5.32723C6.24026 5.32724 6.17406 5.32702 6.10786 5.32654C6.01754 5.32592 5.92727 5.32616 5.83695 5.32663C5.8107 5.32624 5.78445 5.32586 5.7574 5.32546C5.58639 5.32758 5.49881 5.36253 5.37891 5.4844Z" fill="#B8C0DB"/>
<path d="M6.08203 6.08203C8.00789 6.08203 9.93375 6.08203 11.918 6.08203C11.918 8.00789 11.918 9.93375 11.918 11.918C9.01178 11.9354 9.01178 11.9354 6.04688 11.9531C6.05848 10.0157 6.07008 8.0782 6.08203 6.08203Z" fill="#B8C0DB"/>
<path d="M7.69922 15.8555C7.71082 15.8787 7.72242 15.9019 7.73438 15.9258C7.71117 15.9142 7.68797 15.9026 7.66406 15.8906C7.67566 15.879 7.68727 15.8674 7.69922 15.8555Z" fill="#B8C0DB"/>
<path d="M15.8555 6.96094C15.8787 6.98414 15.9019 7.00734 15.9258 7.03125C15.9026 7.03125 15.8794 7.03125 15.8555 7.03125C15.8555 7.00805 15.8555 6.98484 15.8555 6.96094Z" fill="#B8C0DB"/>
<path d="M9.24609 15.9258C9.31641 15.9609 9.31641 15.9609 9.31641 15.9609L9.24609 15.9258Z" fill="#B8C0DB"/>
<path d="M8.68359 15.9258C8.75391 15.9609 8.75391 15.9609 8.75391 15.9609L8.68359 15.9258Z" fill="#B8C0DB"/>
<path d="M5.97656 15.9258C6.04688 15.9609 6.04688 15.9609 6.04688 15.9609L5.97656 15.9258Z" fill="#B8C0DB"/>
<path d="M12.5508 15.8906C12.6211 15.9258 12.6211 15.9258 12.6211 15.9258L12.5508 15.8906Z" fill="#B8C0DB"/>
<path d="M14.0273 3.83203C14.0977 3.86719 14.0977 3.86719 14.0977 3.86719L14.0273 3.83203Z" fill="#B8C0DB"/>
<path d="M3.90234 3.83203C3.97266 3.86719 3.97266 3.86719 3.97266 3.86719L3.90234 3.83203Z" fill="#B8C0DB"/>
<path d="M12.5156 2.03906C12.5859 2.07422 12.5859 2.07422 12.5859 2.07422L12.5156 2.03906Z" fill="#B8C0DB"/>
<path d="M10.3008 2.03906C10.3711 2.07422 10.3711 2.07422 10.3711 2.07422L10.3008 2.03906Z" fill="#B8C0DB"/>
<path d="M9.24609 2.03906C9.31641 2.07422 9.31641 2.07422 9.31641 2.07422L9.24609 2.03906Z" fill="#B8C0DB"/>
<path d="M8.68359 2.03906C8.75391 2.07422 8.75391 2.07422 8.75391 2.07422L8.68359 2.03906Z" fill="#B8C0DB"/>
<path d="M7.62891 2.03906C7.69922 2.07422 7.69922 2.07422 7.69922 2.07422L7.62891 2.03906Z" fill="#B8C0DB"/>
<path d="M7.03125 2.03906C7.10156 2.07422 7.10156 2.07422 7.10156 2.07422L7.03125 2.03906Z" fill="#B8C0DB"/>
<path d="M5.41406 2.03906C5.48438 2.07422 5.48438 2.07422 5.48438 2.07422L5.41406 2.03906Z" fill="#B8C0DB"/>
</svg>
