<svg width="18" height="18" viewBox="0 0 18 18" fill="none" xmlns="http://www.w3.org/2000/svg">
<path d="M1.99513 2.19939C2.03818 2.19869 2.08124 2.19799 2.12559 2.19727C2.54457 2.19749 2.81798 2.29637 3.12178 2.58584C3.35832 2.84838 3.4158 3.08944 3.4136 3.43481C3.41355 3.46426 3.4135 3.49371 3.41345 3.52406C3.41326 3.61791 3.41282 3.71175 3.41237 3.8056C3.41219 3.86932 3.41203 3.93304 3.41189 3.99676C3.4115 4.15276 3.41089 4.30877 3.41017 4.46478C3.43667 4.46472 3.46317 4.46467 3.49047 4.46461C5.06109 4.46147 6.63171 4.45905 8.20234 4.45759C8.39094 4.45742 8.57955 4.45724 8.76815 4.45705C8.8057 4.45701 8.84325 4.45698 8.88193 4.45694C9.48983 4.45633 10.0977 4.45522 10.7056 4.45393C11.3294 4.45261 11.9532 4.45183 12.577 4.45154C12.9619 4.45135 13.3468 4.45074 13.7317 4.4496C13.9956 4.44886 14.2596 4.44863 14.5235 4.44881C14.6758 4.4489 14.8281 4.44877 14.9804 4.44801C15.1199 4.44733 15.2594 4.44729 15.399 4.44777C15.4493 4.44783 15.4997 4.44766 15.55 4.44721C15.9975 4.44351 16.295 4.52446 16.6218 4.83584C16.8534 5.09293 16.9154 5.3295 16.9153 5.66809C16.9155 5.69751 16.9156 5.72693 16.9157 5.75724C16.9161 5.85599 16.9163 5.95473 16.9164 6.05348C16.9166 6.12422 16.9168 6.19496 16.9171 6.26571C16.9178 6.49821 16.9182 6.7307 16.9185 6.9632C16.9187 7.04329 16.9188 7.12338 16.919 7.20347C16.9197 7.57981 16.9202 7.95616 16.9204 8.3325C16.9208 8.76661 16.9217 9.20072 16.9231 9.63483C16.9242 9.97054 16.9247 10.3063 16.9248 10.642C16.9249 10.8424 16.9252 11.0428 16.9261 11.2432C16.9269 11.4319 16.9271 11.6206 16.9267 11.8093C16.9267 11.8783 16.9269 11.9474 16.9274 12.0165C16.9318 12.6864 16.9318 12.6864 16.7695 13.0077C16.7463 13.0077 16.7231 13.0077 16.6992 13.0077C16.6927 13.0324 16.6862 13.0571 16.6795 13.0825C16.561 13.3193 16.3514 13.4222 16.1094 13.5063C15.899 13.5598 15.6875 13.5539 15.4718 13.552C15.4195 13.5521 15.3673 13.5522 15.315 13.5524C15.1724 13.5527 15.0298 13.5521 14.8872 13.5514C14.733 13.5508 14.5789 13.551 14.4247 13.5511C14.1579 13.5512 13.8911 13.5507 13.6244 13.55C13.2386 13.5488 12.8529 13.5484 12.4672 13.5483C11.8414 13.548 11.2155 13.547 10.5896 13.5457C9.98183 13.5444 9.37403 13.5434 8.76622 13.5428C8.72873 13.5428 8.69124 13.5427 8.65261 13.5427C8.46451 13.5425 8.27641 13.5423 8.08831 13.5422C6.52893 13.5407 4.96955 13.5382 3.41017 13.5351C3.41064 13.5686 3.41064 13.5686 3.41112 13.6028C3.41423 13.8361 3.41635 14.0694 3.4179 14.3026C3.4186 14.3896 3.41956 14.4766 3.42078 14.5636C3.42249 14.6888 3.42328 14.814 3.4239 14.9393C3.42463 14.978 3.42536 15.0167 3.4261 15.0566C3.42617 15.2849 3.40624 15.424 3.26955 15.6093C3.09608 15.7701 2.95702 15.7977 2.7271 15.795C2.54461 15.775 2.43146 15.6885 2.30714 15.5544C2.21812 15.4208 2.21047 15.3204 2.21053 15.1636C2.21046 15.1217 2.21039 15.0799 2.21032 15.0367C2.21042 14.9905 2.21052 14.9443 2.21063 14.8967C2.21062 14.8473 2.21058 14.798 2.21054 14.7486C2.21046 14.6125 2.2106 14.4765 2.21078 14.3404C2.21093 14.1938 2.21088 14.0472 2.21085 13.9006C2.21083 13.6466 2.21094 13.3925 2.21114 13.1384C2.21143 12.771 2.21152 12.4037 2.21156 12.0363C2.21164 11.4403 2.21187 10.8443 2.21221 10.2483C2.21253 9.66929 2.21278 9.09026 2.21293 8.51122C2.21294 8.45771 2.21294 8.45771 2.21296 8.40311C2.213 8.22414 2.21305 8.04517 2.21309 7.86619C2.21345 6.38082 2.21407 4.89546 2.21486 3.41009C2.19485 3.41082 2.17484 3.41156 2.15422 3.41232C2.06238 3.41527 1.97055 3.41708 1.87868 3.41888C1.83147 3.42064 1.83147 3.42064 1.7833 3.42245C1.56644 3.42562 1.44286 3.39632 1.26564 3.26946C1.09979 3.09052 1.07323 2.94008 1.07544 2.70216C1.09884 2.53876 1.17773 2.42761 1.3008 2.32024C1.53167 2.18649 1.73441 2.1979 1.99513 2.19939ZM5.37892 7.24212C5.37892 7.26532 5.37892 7.28853 5.37892 7.31243C5.35934 7.32041 5.33977 7.32838 5.31959 7.3366C5.21504 7.39595 5.14267 7.46947 5.06251 7.55853C5.06251 7.58173 5.06251 7.60493 5.06251 7.62884C5.03931 7.62884 5.01611 7.62884 4.9922 7.62884C4.9806 7.67524 4.969 7.72165 4.95705 7.76946C4.93384 7.76946 4.91064 7.76946 4.88673 7.76946C4.58111 8.40048 4.42038 9.0163 4.64064 9.70306C4.77451 10.0599 4.96211 10.3527 5.2383 10.6171C5.25941 10.6393 5.28053 10.6615 5.30229 10.6844C5.67606 11.0517 6.23955 11.2149 6.75386 11.2179C7.3936 11.2031 7.91741 10.9599 8.3672 10.5117C8.38705 10.4926 8.4069 10.4736 8.42735 10.454C8.8165 10.0463 8.96486 9.44136 8.96486 8.89446C8.91958 8.27973 8.66758 7.75043 8.22012 7.32671C7.38498 6.61319 6.25848 6.65574 5.37892 7.24212ZM11.0039 7.24212C11.0039 7.26532 11.0039 7.28853 11.0039 7.31243C10.9843 7.32041 10.9648 7.32838 10.9446 7.3366C10.84 7.39595 10.7677 7.46947 10.6875 7.55853C10.6875 7.58173 10.6875 7.60493 10.6875 7.62884C10.6643 7.62884 10.6411 7.62884 10.6172 7.62884C10.6056 7.67524 10.594 7.72165 10.582 7.76946C10.5588 7.76946 10.5356 7.76946 10.5117 7.76946C10.2061 8.40048 10.0454 9.0163 10.2656 9.70306C10.3995 10.0599 10.5871 10.3527 10.8633 10.6171C10.8844 10.6393 10.9055 10.6615 10.9273 10.6844C11.3011 11.0517 11.8646 11.2149 12.3789 11.2179C13.0186 11.2031 13.5424 10.9599 13.9922 10.5117C14.0121 10.4926 14.0319 10.4736 14.0524 10.454C14.4415 10.0463 14.5899 9.44136 14.5899 8.89446C14.5446 8.27973 14.2926 7.75043 13.8451 7.32671C13.01 6.61319 11.8835 6.65574 11.0039 7.24212Z" fill="#B8C0DB"/>
<path d="M7.83984 14.5898C10.4618 14.5898 13.0838 14.5898 15.7852 14.5898C15.7852 15.3633 15.7852 15.3633 15.6445 15.6094C15.4587 15.7816 15.3094 15.7902 15.065 15.7894C15.0188 15.7894 15.0188 15.7894 14.9716 15.7895C14.868 15.7895 14.7643 15.7893 14.6607 15.7891C14.5865 15.7891 14.5124 15.7891 14.4383 15.7892C14.2366 15.7892 14.035 15.789 13.8334 15.7887C13.6228 15.7885 13.4122 15.7885 13.2016 15.7884C12.8027 15.7883 12.4038 15.788 12.0049 15.7877C11.5508 15.7873 11.0967 15.7871 10.6426 15.7869C9.70835 15.7866 8.7741 15.7859 7.83984 15.7852C7.83984 15.3907 7.83984 14.9963 7.83984 14.5898Z" fill="#B8C0DB"/>
<path d="M12.8891 7.92943C13.1819 8.10829 13.4139 8.3483 13.5212 8.67842C13.5839 9.01668 13.5361 9.32317 13.3946 9.63286C13.3714 9.63286 13.3482 9.63286 13.3243 9.63286C13.3145 9.66984 13.3145 9.66984 13.3045 9.70757C13.2033 9.90999 13.0354 10.0173 12.8299 10.1031C12.5142 10.2063 12.1653 10.213 11.861 10.0707C11.5679 9.89161 11.3382 9.65239 11.2289 9.32305C11.1721 9.01118 11.1752 8.67125 11.3555 8.40239C11.7252 7.91354 12.2918 7.64997 12.8891 7.92943Z" fill="#B8C0DB"/>
<path d="M7.26405 7.92943C7.55686 8.10829 7.78893 8.3483 7.89618 8.67842C7.95891 9.01668 7.91114 9.32317 7.76956 9.63286C7.74636 9.63286 7.72316 9.63286 7.69925 9.63286C7.68946 9.66984 7.68946 9.66984 7.67948 9.70757C7.57826 9.90999 7.41039 10.0173 7.20487 10.1031C6.88916 10.2063 6.54031 10.213 6.23601 10.0707C5.94288 9.89161 5.71319 9.65239 5.60388 9.32305C5.54708 9.01118 5.55021 8.67125 5.7305 8.40239C6.1002 7.91354 6.66675 7.64997 7.26405 7.92943Z" fill="#B8C0DB"/>
<path d="M4.46484 14.5898C5.23054 14.5898 5.99624 14.5898 6.78515 14.5898C6.78515 14.9843 6.78515 15.3787 6.78515 15.7852C6.51927 15.7884 6.25345 15.7912 5.98757 15.7929C5.89717 15.7936 5.80677 15.7945 5.71638 15.7958C5.58625 15.7975 5.45616 15.7983 5.32603 15.7989C5.26564 15.8 5.26564 15.8 5.20404 15.8011C4.97223 15.8012 4.82832 15.7843 4.64062 15.6445C4.34203 15.3224 4.46484 15.1146 4.46484 14.5898Z" fill="#B8C0DB"/>
</svg>
