<svg width="25" height="25" viewBox="0 0 25 25" fill="none" xmlns="http://www.w3.org/2000/svg">
<g clip-path="url(#clip0_46_8)">
<path d="M3.66114 21.3389C2.78648 20.4642 2.06855 19.4922 1.50732 18.4577C0.963631 19.3661 0.537636 20.2234 0.281895 20.9861C0.116334 21.4798 -0.00724094 22.0184 0.000329972 22.5516C0.00801553 23.0927 0.157839 23.7689 0.694431 24.3056C1.23103 24.8422 1.90741 24.992 2.44852 24.9997C2.98153 25.0072 3.52017 24.8836 4.01388 24.7181C5.00725 24.385 6.16141 23.763 7.37995 22.9683C8.07214 22.5169 8.80805 21.9945 9.5753 21.4098C10.4956 21.7117 11.4787 21.875 12.5 21.875C17.6777 21.875 21.875 17.6777 21.875 12.5C21.875 11.4787 21.7117 10.4956 21.4098 9.5753C21.9945 8.80805 22.5169 8.07214 22.9683 7.37995C23.763 6.16141 24.385 5.00725 24.7181 4.01388C24.8836 3.52017 25.0072 2.98153 24.9997 2.44852C24.992 1.90741 24.8422 1.23103 24.3056 0.694431C23.7689 0.157839 23.0927 0.00801553 22.5516 0.000329972C22.0184 -0.00724094 21.4798 0.116334 20.9861 0.281895C20.2234 0.537637 19.3661 0.963638 18.4577 1.50733C19.4922 2.06856 20.4642 2.7865 21.3388 3.66116C20.9038 4.70958 20.403 5.63094 19.7505 6.55631C19.7436 6.56595 19.7367 6.57559 19.73 6.58527C18.3738 8.504 16.4667 10.774 14.1855 13.1046C13.8291 13.4687 13.4687 13.829 13.1046 14.1854C10.7623 16.4781 8.48116 18.3928 6.5563 19.7503C5.63738 20.3984 4.69153 20.8827 3.66114 21.3389Z" fill="#B8C0DB"/>
<path d="M12.5 3.125C14.2874 3.125 15.958 3.62519 17.3794 4.49323C16.0495 6.42377 13.9956 8.88076 11.4382 11.4382C8.88078 13.9956 6.42377 16.0495 4.49322 17.3792C3.62519 15.958 3.125 14.2874 3.125 12.5C3.125 7.32233 7.32233 3.125 12.5 3.125Z" fill="#B8C0DB"/>
</g>
<defs>
<clipPath id="clip0_46_8">
<rect width="25" height="25" fill="white"/>
</clipPath>
</defs>
</svg>
