<svg width="18" height="18" viewBox="0 0 18 18" fill="none" xmlns="http://www.w3.org/2000/svg">
<path d="M2.08351 4.72789C2.1456 4.7277 2.20769 4.72745 2.26978 4.72715C2.43994 4.72649 2.6101 4.72671 2.78027 4.72708C2.96396 4.72733 3.14766 4.72676 3.33135 4.72631C3.69104 4.72555 4.05072 4.72555 4.41041 4.72584C4.70276 4.72606 4.99512 4.72602 5.28747 4.72579C5.3499 4.72574 5.3499 4.72574 5.41358 4.7257C5.49813 4.72563 5.58267 4.72557 5.66721 4.7255C6.45995 4.72492 7.25268 4.72522 8.04541 4.72582C8.77059 4.72633 9.49577 4.72582 10.221 4.7248C10.9657 4.72377 11.7104 4.72339 12.4552 4.72372C12.5394 4.72376 12.6236 4.72379 12.7079 4.72383C12.7701 4.72385 12.7701 4.72385 12.8335 4.72388C13.1254 4.72395 13.4174 4.72361 13.7093 4.7231C14.0652 4.72248 14.4211 4.72248 14.7769 4.72328C14.9585 4.72368 15.14 4.72379 15.3216 4.72313C15.4878 4.72254 15.6541 4.72277 15.8203 4.72363C15.8804 4.7238 15.9405 4.72368 16.0005 4.72323C16.3541 4.72076 16.6677 4.72972 16.9416 4.98347C17.1959 5.25046 17.2079 5.52428 17.2079 5.87785C17.2082 5.92234 17.2085 5.96683 17.2087 6.01268C17.2091 6.10648 17.2093 6.20024 17.209 6.29404C17.2088 6.41396 17.2099 6.53383 17.2113 6.65374C17.2125 6.76864 17.2123 6.88354 17.2123 6.99845C17.2129 7.04137 17.2135 7.0843 17.2141 7.12852C17.2116 7.42484 17.2116 7.42484 17.1096 7.56718C16.9958 7.64179 16.906 7.6617 16.7718 7.68153C16.5653 7.7194 16.4527 7.75389 16.3125 7.91004C16.3009 7.93325 16.2893 7.95645 16.2774 7.98035C16.2542 7.98035 16.231 7.98035 16.2071 7.98035C16.1311 8.26977 16.088 8.57862 16.2312 8.85487C16.3984 9.08082 16.4964 9.14146 16.7718 9.19325C16.8135 9.19941 16.8552 9.20557 16.8982 9.21192C17.0512 9.2563 17.0978 9.29124 17.1914 9.42176C17.2174 9.57277 17.2144 9.72219 17.2123 9.87508C17.2123 9.91943 17.2123 9.96377 17.2123 10.0095C17.2121 10.1033 17.2116 10.197 17.2105 10.2908C17.2091 10.4103 17.2089 10.5297 17.2092 10.6492C17.2093 10.764 17.2086 10.8787 17.2079 10.9935C17.2079 11.0361 17.2079 11.0787 17.2079 11.1226C17.2047 11.3538 17.1836 11.5316 17.086 11.7421C17.0628 11.7421 17.0396 11.7421 17.0157 11.7421C17.0077 11.7687 16.9997 11.7953 16.9915 11.8228C16.9172 11.9757 16.8031 12.0168 16.6529 12.0862C16.4071 12.1671 16.1597 12.1576 15.9039 12.1553C15.8417 12.1556 15.7795 12.1559 15.7173 12.1563C15.5474 12.1571 15.3775 12.1566 15.2075 12.1559C15.0239 12.1553 14.8403 12.156 14.6567 12.1565C14.2974 12.1573 13.9381 12.1569 13.5787 12.1562C13.2867 12.1556 12.9946 12.1555 12.7026 12.1557C12.661 12.1557 12.6194 12.1557 12.5765 12.1557C12.492 12.1558 12.4075 12.1558 12.323 12.1559C11.5309 12.1563 10.7389 12.1554 9.94688 12.1541C9.26747 12.1531 8.58807 12.153 7.90866 12.1536C7.11931 12.1544 6.32997 12.1546 5.54062 12.1539C5.45644 12.1538 5.37225 12.1538 5.28807 12.1537C5.22595 12.1536 5.22595 12.1536 5.16256 12.1536C4.87087 12.1533 4.57918 12.1535 4.28749 12.1538C3.93201 12.1542 3.57653 12.1539 3.22105 12.1529C3.03972 12.1523 2.85841 12.1521 2.67708 12.1526C2.51101 12.153 2.34496 12.1527 2.17889 12.1517C2.1189 12.1515 2.05891 12.1515 1.99892 12.1519C1.6456 12.1541 1.3321 12.1448 1.05841 11.8913C0.804141 11.6243 0.792203 11.3505 0.792144 10.9969C0.791876 10.9524 0.791609 10.9079 0.791333 10.8621C0.790954 10.7683 0.790804 10.6745 0.791011 10.5807C0.791219 10.4608 0.79014 10.3409 0.788722 10.221C0.787593 10.1061 0.787746 9.99123 0.78775 9.87632C0.787173 9.8334 0.786597 9.79047 0.786003 9.74625C0.788706 9.4156 0.788706 9.4156 0.890386 9.30719C1.00868 9.23018 1.09454 9.21903 1.23489 9.20863C1.51805 9.18076 1.77087 9.12809 2.00394 8.95814C2.15741 8.74231 2.20271 8.53358 2.16461 8.27177C2.11344 8.06636 1.96903 7.91533 1.793 7.80457C1.5722 7.69895 1.3395 7.67855 1.09811 7.65763C0.9883 7.62978 0.923057 7.60243 0.845164 7.51968C0.758837 7.36217 0.785454 7.16399 0.78775 6.98953C0.787748 6.94423 0.787747 6.89894 0.787745 6.85228C0.787803 6.75655 0.788459 6.66086 0.789569 6.56514C0.790963 6.44286 0.791118 6.32062 0.790854 6.19834C0.790719 6.08121 0.791452 5.96408 0.792144 5.84695C0.792151 5.80322 0.792158 5.75949 0.792165 5.71443C0.796067 5.4289 0.837773 5.245 1.02396 5.02283C1.04217 5.00027 1.06039 4.9777 1.07916 4.95444C1.3766 4.7054 1.71631 4.72595 2.08351 4.72789ZM4.043 6.92567C4.043 6.94887 4.043 6.97207 4.043 6.99598C4.00819 7.00758 3.97339 7.01918 3.93753 7.03114C3.93753 7.05434 3.93753 7.07754 3.93753 7.10145C3.91433 7.10145 3.89112 7.10145 3.86722 7.10145C3.80943 7.25376 3.78792 7.38015 3.78725 7.54276C3.78691 7.58781 3.78658 7.63286 3.78623 7.67928C3.78624 7.728 3.78628 7.77673 3.78633 7.82545C3.78619 7.87587 3.78604 7.9263 3.78587 7.97673C3.78561 8.08217 3.78562 8.1876 3.78581 8.29304C3.78601 8.4278 3.78541 8.56254 3.7846 8.6973C3.78408 8.80136 3.78405 8.90541 3.78416 9.00947C3.78414 9.05914 3.78396 9.10881 3.7836 9.15849C3.78317 9.22805 3.78348 9.29761 3.78382 9.36717C3.78379 9.40666 3.78377 9.44615 3.78375 9.48684C3.80273 9.64658 3.86602 9.76174 3.9639 9.88758C4.19514 10.0674 4.50249 10.0302 4.78004 10.03C4.82789 10.0301 4.87573 10.0303 4.92357 10.0304C5.02354 10.0307 5.1235 10.0307 5.22347 10.0305C5.35094 10.0303 5.47838 10.0309 5.60584 10.0317C5.70456 10.0322 5.80328 10.0323 5.902 10.0322C5.97163 10.0322 6.04127 10.0327 6.1109 10.0332C6.3486 10.032 6.53586 10.0209 6.75003 9.91395C6.90912 9.75078 6.93021 9.62372 6.93203 9.40139C6.93226 9.37806 6.9325 9.35472 6.93273 9.33068C6.93343 9.25351 6.93384 9.17634 6.93419 9.09918C6.93433 9.07277 6.93447 9.04637 6.93462 9.01917C6.93535 8.87942 6.93586 8.73967 6.93619 8.59992C6.93658 8.45582 6.93779 8.31173 6.93918 8.16762C6.9401 8.0566 6.9404 7.94559 6.94052 7.83456C6.94069 7.78145 6.9411 7.72835 6.94175 7.67524C6.94261 7.60077 6.94258 7.52635 6.94233 7.45187C6.94264 7.38841 6.94264 7.38841 6.94296 7.32367C6.92222 7.18247 6.87331 7.10693 6.78519 6.99598C6.6107 6.86948 6.46485 6.85099 6.25285 6.85025C6.2092 6.85002 6.16554 6.8498 6.12057 6.84957C6.07304 6.84951 6.0255 6.84947 5.97797 6.84945C5.92901 6.84934 5.88006 6.84922 5.83111 6.84909C5.72857 6.84888 5.62602 6.84882 5.52347 6.84884C5.39242 6.84884 5.26137 6.84836 5.13031 6.84776C5.02921 6.84737 4.92812 6.8473 4.82702 6.84731C4.77872 6.84727 4.73042 6.84712 4.68212 6.84685C4.6144 6.8465 4.54668 6.84665 4.47897 6.84681C4.44051 6.84676 4.40206 6.84671 4.36244 6.84666C4.2464 6.85596 4.15153 6.88456 4.043 6.92567ZM7.638 7.01356C7.51041 7.18251 7.48389 7.28997 7.48265 7.49885C7.48231 7.54462 7.48197 7.59038 7.48162 7.63754C7.48145 7.68759 7.4813 7.73763 7.48117 7.78768C7.48097 7.83905 7.48077 7.89041 7.48056 7.94178C7.48019 8.0495 7.47999 8.15722 7.47987 8.26494C7.47967 8.40266 7.47883 8.54037 7.47783 8.67809C7.47717 8.78422 7.47699 8.89036 7.47694 8.99649C7.47683 9.04725 7.47655 9.098 7.47608 9.14875C7.47548 9.21992 7.47562 9.2911 7.47578 9.36227C7.47565 9.40271 7.47552 9.44314 7.47539 9.4848C7.49263 9.63525 7.54426 9.75289 7.64528 9.8663C7.82245 10.0068 7.93787 10.0237 8.16016 10.0251C8.20358 10.0254 8.24701 10.0258 8.29175 10.0261C8.33906 10.0263 8.38637 10.0264 8.43368 10.0266C8.48247 10.0268 8.53125 10.027 8.58003 10.0272C8.68228 10.0275 8.78453 10.0277 8.88678 10.0279C9.01721 10.0281 9.14762 10.0289 9.27803 10.0299C9.37883 10.0306 9.47963 10.0307 9.58043 10.0308C9.62848 10.0309 9.67652 10.0312 9.72457 10.0316C9.98622 10.034 10.2051 10.0329 10.4414 9.91395C10.5993 9.75199 10.6216 9.6259 10.6234 9.40518C10.6237 9.38224 10.6239 9.3593 10.6241 9.33567C10.6248 9.25981 10.6252 9.18396 10.6256 9.1081C10.6257 9.08213 10.6259 9.05616 10.626 9.0294C10.6268 8.89189 10.6273 8.75439 10.6276 8.61688C10.628 8.47521 10.6292 8.33357 10.6306 8.19192C10.6315 8.08267 10.6318 7.97344 10.6319 7.86419C10.6321 7.81199 10.6325 7.7598 10.6332 7.7076C10.6435 7.32682 10.6435 7.32682 10.4766 6.99598C10.3055 6.86766 10.1545 6.851 9.94481 6.84969C9.90127 6.84935 9.85774 6.84901 9.81288 6.84867C9.76545 6.8485 9.71803 6.84835 9.67061 6.84821C9.62174 6.84801 9.57287 6.84781 9.52401 6.84761C9.42161 6.84724 9.31921 6.84703 9.21681 6.84691C9.08607 6.84672 8.95534 6.84587 8.82461 6.84487C8.72366 6.84421 8.62271 6.84403 8.52176 6.84398C8.47359 6.84387 8.42541 6.84359 8.37724 6.84313C7.9796 6.83315 7.9796 6.83315 7.638 7.01356ZM11.3294 7.01356C11.2012 7.18333 11.1753 7.29161 11.1735 7.50152C11.173 7.54788 11.1726 7.59423 11.1721 7.642C11.1718 7.69271 11.1716 7.74342 11.1713 7.79414C11.1712 7.81972 11.1711 7.8453 11.1709 7.87166C11.1702 8.00712 11.1697 8.14257 11.1693 8.27803C11.169 8.41757 11.1677 8.55708 11.1663 8.69661C11.1654 8.80422 11.1651 8.91183 11.165 9.01945C11.1648 9.07086 11.1644 9.12227 11.1638 9.17368C11.1543 9.55094 11.1543 9.55094 11.3203 9.87879C11.4914 10.0071 11.6424 10.0238 11.8521 10.0251C11.8957 10.0254 11.9392 10.0258 11.9841 10.0261C12.0315 10.0263 12.0789 10.0264 12.1263 10.0266C12.1752 10.0268 12.2241 10.027 12.2729 10.0272C12.3753 10.0275 12.4777 10.0277 12.5801 10.0279C12.7109 10.0281 12.8416 10.0289 12.9723 10.0299C13.0733 10.0306 13.1742 10.0307 13.2752 10.0308C13.3233 10.0309 13.3715 10.0312 13.4197 10.0316C13.8295 10.0378 13.8295 10.0378 14.179 9.84583C14.2993 9.69873 14.3176 9.59134 14.3188 9.40119C14.3191 9.37824 14.3193 9.3553 14.3196 9.33166C14.3202 9.256 14.3204 9.18034 14.3204 9.10467C14.3207 9.05186 14.3209 8.99905 14.3211 8.94624C14.3216 8.83557 14.3217 8.7249 14.3217 8.61422C14.3216 8.47284 14.3226 8.33148 14.3238 8.1901C14.3246 8.081 14.3247 7.97191 14.3247 7.86282C14.3248 7.81072 14.3251 7.75862 14.3256 7.70653C14.3348 7.32634 14.3348 7.32634 14.168 6.99598C13.9969 6.86766 13.8459 6.851 13.6362 6.84969C13.5927 6.84935 13.5491 6.84901 13.5043 6.84867C13.4569 6.8485 13.4094 6.84835 13.362 6.84821C13.3131 6.84801 13.2643 6.84781 13.2154 6.84761C13.113 6.84724 13.0106 6.84703 12.9082 6.84691C12.7775 6.84672 12.6468 6.84587 12.516 6.84487C12.4151 6.84421 12.3141 6.84403 12.2132 6.84398C12.165 6.84387 12.1168 6.84359 12.0687 6.84313C11.671 6.83315 11.671 6.83315 11.3294 7.01356Z" fill="#B8C0DB"/>
<path d="M1.93359 12.4102C4.36992 12.4102 6.80625 12.4102 9.31641 12.4102C9.31641 12.6306 9.31641 12.851 9.31641 13.0781C9.12056 13.274 9.12056 13.274 8.93472 13.2774C8.908 13.277 8.88127 13.2766 8.85374 13.2762C8.825 13.2765 8.79626 13.2768 8.76665 13.2771C8.67042 13.2778 8.57424 13.2772 8.47801 13.2767C8.409 13.2769 8.33999 13.2772 8.27097 13.2776C8.08357 13.2784 7.89618 13.2781 7.70878 13.2775C7.51273 13.2771 7.31669 13.2775 7.12064 13.2778C6.79141 13.2781 6.46218 13.2777 6.13295 13.2768C5.75221 13.2759 5.37149 13.2762 4.99076 13.2771C4.66397 13.2779 4.33719 13.2781 4.0104 13.2776C3.81518 13.2773 3.61997 13.2773 3.42475 13.2779C3.24122 13.2784 3.05771 13.278 2.87418 13.277C2.80679 13.2768 2.7394 13.2768 2.67201 13.2772C2.58007 13.2777 2.4882 13.2771 2.39626 13.2762C2.35617 13.2768 2.35617 13.2768 2.31528 13.2774C2.10569 13.2735 2.09898 13.2435 1.93359 13.0781C1.93359 12.8577 1.93359 12.6373 1.93359 12.4102Z" fill="#B8C0DB"/>
<path d="M11.6367 7.34773C11.9203 7.34692 12.2039 7.3463 12.4875 7.34591C12.6191 7.34573 12.7508 7.34548 12.8825 7.34508C13.0094 7.3447 13.1364 7.34449 13.2634 7.3444C13.3119 7.34433 13.3605 7.34421 13.409 7.34402C13.4768 7.34376 13.5445 7.34375 13.6123 7.34374C13.6509 7.34366 13.6896 7.34359 13.7294 7.34351C13.8164 7.34773 13.8164 7.34773 13.8515 7.38289C13.8548 7.44977 13.8557 7.51678 13.8555 7.58374C13.8555 7.62667 13.8555 7.66961 13.8555 7.71384C13.8553 7.76104 13.8552 7.80824 13.855 7.85544C13.8549 7.90347 13.8549 7.9515 13.8548 7.99953C13.8547 8.12616 13.8543 8.25279 13.854 8.37943C13.8536 8.50856 13.8534 8.63769 13.8533 8.76682C13.8529 9.02036 13.8523 9.27389 13.8515 9.52742C13.568 9.52823 13.2844 9.52886 13.0008 9.52924C12.8691 9.52943 12.7374 9.52968 12.6058 9.53007C12.4788 9.53045 12.3518 9.53066 12.2249 9.53076C12.1763 9.53082 12.1278 9.53095 12.0792 9.53114C12.0115 9.53139 11.9437 9.53141 11.8759 9.53141C11.8373 9.53149 11.7986 9.53157 11.7588 9.53165C11.6719 9.52742 11.6719 9.52742 11.6367 9.49226C11.6334 9.42538 11.6326 9.35838 11.6327 9.29141C11.6327 9.24848 11.6327 9.20555 11.6327 9.16131C11.6329 9.11411 11.6331 9.06691 11.6333 9.01972C11.6333 8.97168 11.6334 8.92365 11.6334 8.87562C11.6335 8.74899 11.6339 8.62236 11.6343 8.49573C11.6346 8.3666 11.6348 8.23746 11.635 8.10833C11.6354 7.8548 11.636 7.60127 11.6367 7.34773Z" fill="#B8C0DB"/>
<path d="M7.94529 7.34773C8.22888 7.34692 8.51247 7.3463 8.79606 7.34591C8.92773 7.34573 9.05939 7.34548 9.19106 7.34508C9.31803 7.3447 9.445 7.34449 9.57196 7.3444C9.62051 7.34433 9.66905 7.34421 9.71759 7.34402C9.78536 7.34376 9.85313 7.34375 9.9209 7.34374C9.95954 7.34366 9.99819 7.34359 10.038 7.34351C10.125 7.34773 10.125 7.34773 10.1601 7.38289C10.1634 7.44977 10.1643 7.51678 10.1641 7.58374C10.1641 7.62667 10.1641 7.66961 10.1641 7.71384C10.1639 7.76104 10.1638 7.80824 10.1636 7.85544C10.1635 7.90347 10.1635 7.9515 10.1634 7.99953C10.1633 8.12616 10.1629 8.25279 10.1625 8.37943C10.1622 8.50856 10.162 8.63769 10.1618 8.76682C10.1615 9.02036 10.1609 9.27389 10.1601 9.52742C9.87654 9.52823 9.59296 9.52886 9.30937 9.52924C9.1777 9.52943 9.04603 9.52968 8.91436 9.53007C8.78739 9.53045 8.66043 9.53066 8.53346 9.53076C8.48492 9.53082 8.43637 9.53095 8.38783 9.53114C8.32006 9.53139 8.25229 9.53141 8.18453 9.53141C8.14588 9.53149 8.10724 9.53157 8.06742 9.53165C7.98045 9.52742 7.98045 9.52742 7.94529 9.49226C7.94199 9.42538 7.94116 9.35838 7.9413 9.29141C7.9413 9.24848 7.9413 9.20555 7.94131 9.16131C7.94149 9.11411 7.94167 9.06691 7.94186 9.01972C7.94192 8.97168 7.94197 8.92365 7.94201 8.87562C7.94214 8.74899 7.94249 8.62236 7.94288 8.49573C7.94323 8.3666 7.9434 8.23746 7.94357 8.10833C7.94395 7.8548 7.94455 7.60127 7.94529 7.34773Z" fill="#B8C0DB"/>
<path d="M4.37604 7.34351C4.41469 7.34358 4.45333 7.34366 4.49314 7.34374C4.53739 7.34375 4.58164 7.34375 4.62723 7.34376C4.67459 7.34393 4.72195 7.34411 4.7693 7.3443C4.81212 7.34434 4.85493 7.34437 4.89904 7.34441C5.05973 7.34459 5.22042 7.34508 5.38111 7.34554C5.74003 7.34626 6.09895 7.34699 6.46875 7.34773C6.46875 8.06703 6.46875 8.78633 6.46875 9.52742C5.93037 9.52851 5.93037 9.52851 5.38111 9.52962C5.26763 9.52994 5.15416 9.53026 5.03724 9.53059C4.94793 9.53069 4.85862 9.53078 4.7693 9.53085C4.74595 9.53095 4.7226 9.53104 4.69854 9.53113C4.63008 9.53139 4.56161 9.53141 4.49314 9.53141C4.4545 9.53149 4.41586 9.53157 4.37604 9.53165C4.28906 9.52742 4.28906 9.52742 4.25391 9.49226C4.25042 9.42665 4.24941 9.3609 4.24936 9.2952C4.24925 9.25308 4.24914 9.21097 4.24902 9.16758C4.24909 9.12173 4.24917 9.07588 4.24924 9.02864C4.24922 8.98148 4.24918 8.93433 4.24914 8.88717C4.24909 8.78822 4.24916 8.68927 4.24932 8.59032C4.24953 8.46323 4.24941 8.33614 4.2492 8.20904C4.24907 8.11163 4.24911 8.01422 4.2492 7.9168C4.24924 7.84706 4.24913 7.77732 4.24902 7.70758C4.24913 7.66546 4.24925 7.62335 4.24936 7.57996C4.24939 7.54267 4.24942 7.50538 4.24944 7.46696C4.25556 7.35181 4.26064 7.34912 4.37604 7.34351Z" fill="#B8C0DB"/>
<path d="M10.9336 12.4102C12.6274 12.4102 14.3213 12.4102 16.0664 12.4102C16.0664 12.6306 16.0664 12.851 16.0664 13.0781C15.8686 13.2759 15.8686 13.2759 15.6892 13.2762C15.6489 13.2767 15.6087 13.2772 15.5673 13.2777C15.5235 13.2774 15.4797 13.277 15.4346 13.2767C15.3882 13.277 15.3418 13.2773 15.294 13.2776C15.167 13.2784 15.0401 13.2781 14.9131 13.2775C14.7801 13.2771 14.6472 13.2775 14.5142 13.2778C14.2909 13.2781 14.0676 13.2777 13.8442 13.2768C13.5862 13.2759 13.3282 13.2762 13.0701 13.2771C12.8485 13.2779 12.6268 13.2781 12.4051 13.2776C12.2727 13.2773 12.1404 13.2773 12.0081 13.2779C11.8605 13.2785 11.713 13.2776 11.5654 13.2767C11.4997 13.2772 11.4997 13.2772 11.4327 13.2777C11.3925 13.2772 11.3523 13.2767 11.3108 13.2762C11.276 13.2762 11.2411 13.2761 11.2052 13.276C11.1094 13.2539 11.1094 13.2539 10.9336 13.0781C10.9336 12.8577 10.9336 12.6373 10.9336 12.4102Z" fill="#B8C0DB"/>
</svg>
