<svg width="12" height="12" viewBox="0 0 12 12" fill="none" xmlns="http://www.w3.org/2000/svg">
<g clip-path="url(#clip0_42_2)">
<path d="M6.19475 0.024973C6.30307 0.103068 6.36727 0.188371 6.38934 0.321251C6.38983 0.352869 6.38968 0.3845 6.38901 0.416115C6.38916 0.442453 6.38916 0.442453 6.38932 0.469324C6.38951 0.527778 6.38887 0.586192 6.38823 0.644642C6.38819 0.686691 6.38821 0.728741 6.38828 0.770791C6.38831 0.884678 6.38762 0.998551 6.3868 1.11243C6.38607 1.23155 6.386 1.35066 6.38586 1.46978C6.3855 1.69522 6.38454 1.92066 6.38336 2.1461C6.38205 2.4028 6.38141 2.65951 6.38082 2.91621C6.37959 3.44417 6.37753 3.97212 6.37492 4.50007C6.39611 4.49994 6.39611 4.49994 6.41772 4.49981C6.76162 4.49774 7.10551 4.49619 7.44941 4.49521C7.61572 4.49473 7.78203 4.49407 7.94834 4.493C8.10881 4.49196 8.26928 4.49142 8.42976 4.49118C8.49101 4.491 8.55225 4.49066 8.6135 4.49016C8.69924 4.48948 8.78496 4.48938 8.87071 4.48943C8.89606 4.48909 8.92142 4.48875 8.94754 4.48841C9.0902 4.48919 9.17257 4.49867 9.28117 4.59382C9.37936 4.69717 9.39114 4.78936 9.38885 4.9264C9.35739 5.1281 9.25575 5.3113 9.16984 5.4947C9.14843 5.54146 9.12706 5.58824 9.10576 5.63505C9.0615 5.73216 9.017 5.82916 8.97232 5.92608C8.87976 6.12737 8.79021 6.32997 8.70062 6.53259C8.65209 6.64225 8.60334 6.75182 8.55461 6.8614C8.53508 6.90534 8.51555 6.94929 8.49602 6.99323C7.44133 9.36628 7.44133 9.36628 7.41204 9.43219C7.39249 9.47617 7.37295 9.52014 7.3534 9.56412C7.30478 9.67352 7.25615 9.78293 7.20752 9.89234C7.11722 10.0955 7.02693 10.2987 6.93669 10.5019C6.89477 10.5963 6.85283 10.6907 6.8109 10.7851C6.79121 10.8294 6.77151 10.8738 6.75183 10.9181C6.74257 10.9389 6.73332 10.9598 6.72378 10.9813C6.71013 11.012 6.71013 11.012 6.69621 11.0434C6.66946 11.1036 6.64261 11.1637 6.61576 11.2238C6.5787 11.3069 6.54224 11.3902 6.50606 11.4736C6.48759 11.5158 6.46911 11.5579 6.45064 11.6001C6.4424 11.6194 6.43416 11.6387 6.42567 11.6585C6.36887 11.7873 6.30708 11.9033 6.18797 11.985C6.06362 12.0246 5.92642 12.0138 5.80363 11.9752C5.69671 11.8963 5.63248 11.8112 5.6105 11.6789C5.61002 11.6473 5.61016 11.6156 5.61083 11.584C5.61073 11.5665 5.61063 11.5489 5.61053 11.5308C5.61033 11.4724 5.61098 11.4139 5.61162 11.3555C5.61165 11.3134 5.61163 11.2714 5.61157 11.2294C5.61153 11.1155 5.61222 11.0016 5.61304 10.8877C5.61377 10.7686 5.61384 10.6495 5.61398 10.5304C5.61434 10.3049 5.61531 10.0795 5.61648 9.85405C5.61779 9.59734 5.61844 9.34063 5.61902 9.08393C5.62025 8.55597 5.62231 8.02802 5.62492 7.50007C5.61084 7.5002 5.59676 7.50033 5.58225 7.50046C5.23913 7.50357 4.896 7.5059 4.55286 7.50736C4.38692 7.50808 4.22098 7.50907 4.05504 7.51068C3.89487 7.51223 3.73471 7.51305 3.57453 7.51341C3.51345 7.51367 3.45238 7.51418 3.3913 7.51494C3.30568 7.51596 3.22009 7.5161 3.13446 7.51604C3.10927 7.51654 3.08409 7.51705 3.05814 7.51757C2.91045 7.51635 2.82261 7.49327 2.70772 7.3988C2.61844 7.30098 2.60812 7.20194 2.61069 7.07333C2.64295 6.87186 2.74411 6.68879 2.83 6.50544C2.85142 6.45868 2.87278 6.4119 2.89409 6.36509C2.93835 6.26798 2.98285 6.17098 3.02753 6.07406C3.12008 5.87277 3.20963 5.67017 3.29922 5.46755C3.34775 5.35789 3.3965 5.24832 3.44523 5.13874C3.46477 5.0948 3.4843 5.05085 3.50383 5.00691C4.55852 2.63386 4.55852 2.63386 4.58781 2.56795C4.60735 2.52398 4.6269 2.48 4.64644 2.43603C4.69507 2.32662 4.74369 2.21721 4.79232 2.1078C4.88263 1.90464 4.97292 1.70147 5.06315 1.49827C5.10508 1.40387 5.14701 1.30948 5.18894 1.21508C5.20864 1.17073 5.22833 1.12639 5.24802 1.08204C5.29326 0.980132 5.33855 0.878249 5.38399 0.776426C5.4212 0.692992 5.458 0.609388 5.49461 0.525686C5.51329 0.483323 5.53198 0.440961 5.55067 0.3986C5.55911 0.379115 5.56754 0.359629 5.57623 0.339554C5.63229 0.213141 5.68699 0.108443 5.80363 0.0279027C5.93696 -0.0190092 6.06035 -0.0181355 6.19475 0.024973Z" fill="#B8C0DB"/>
</g>
<defs>
<clipPath id="clip0_42_2">
<rect width="12" height="12" fill="white"/>
</clipPath>
</defs>
</svg>
